<?xml version="1.0" encoding="UTF-8" standalone="no"?>
<!-- Created with Inkscape (http://www.inkscape.org/) -->

<svg
   version="1.1"
   id="svg1"
   width="213.54266"
   height="32.286667"
   viewBox="0 0 213.54266 32.286667"
   xmlns="http://www.w3.org/2000/svg"
   xmlns:svg="http://www.w3.org/2000/svg">
  <defs
     id="defs1" />
  <g
     id="g1">
    <path
       id="path1"
       d="M 0,0 V -1.4174 H 160.15929 V 0 Z"
       style="fill:#389826;fill-opacity:1;fill-rule:nonzero;stroke:none"
       transform="scale(1.3333333,-1.3333333)" />
    <path
       id="path2"
       d="m 155.90744,0 v -22.67752 h 1.41743 V 0 Z"
       style="fill:#389826;fill-opacity:1;fill-rule:nonzero;stroke:none"
       transform="scale(1.3333333,-1.3333333)" />
    <path
       id="path3"
       d="m 0,-2.83484 v -1.41699 h 160.15929 v 1.41699 z"
       style="fill:#4063d8;fill-opacity:1;fill-rule:nonzero;stroke:none"
       transform="scale(1.3333333,-1.3333333)" />
    <path
       id="path4"
       d="m 158.7423,0 v -22.67752 h 1.41699 V 0 Z"
       style="fill:#4063d8;fill-opacity:1;fill-rule:nonzero;stroke:none"
       transform="scale(1.3333333,-1.3333333)" />
    <path
       id="path5"
       d="m 0,-7.08669 v -1.41743 h 160.15929 v 1.41743 z"
       style="fill:#9559b2;fill-opacity:1;fill-rule:nonzero;stroke:none"
       transform="scale(1.3333333,-1.3333333)" />
    <path
       id="path6"
       d="m 151.6556,0 v -22.67752 h 1.41699 V 0 Z"
       style="fill:#9559b2;fill-opacity:1;fill-rule:nonzero;stroke:none"
       transform="scale(1.3333333,-1.3333333)" />
    <path
       id="path7"
       d="m 155.90744,0 v -1.4174 h 1.41743 V 0 Z"
       style="fill:#c43c33;fill-opacity:1;fill-rule:nonzero;stroke:none"
       transform="scale(1.3333333,-1.3333333)" />
    <path
       id="path8"
       d="m 158.7423,0 v -1.4174 h 1.41699 V 0 Z"
       style="fill:#c43c33;fill-opacity:1;fill-rule:nonzero;stroke:none"
       transform="scale(1.3333333,-1.3333333)" />
    <path
       id="path9"
       d="m 151.6556,0 v -1.4174 h 1.41699 V 0 Z"
       style="fill:#c43c33;fill-opacity:1;fill-rule:nonzero;stroke:none"
       transform="scale(1.3333333,-1.3333333)" />
    <path
       id="path10"
       d="m 155.90744,-2.83484 v -1.41699 h 1.41743 v 1.41699 z"
       style="fill:#c43c33;fill-opacity:1;fill-rule:nonzero;stroke:none"
       transform="scale(1.3333333,-1.3333333)" />
    <path
       id="path11"
       d="m 158.7423,-2.83484 v -1.41699 h 1.41699 v 1.41699 z"
       style="fill:#c43c33;fill-opacity:1;fill-rule:nonzero;stroke:none"
       transform="scale(1.3333333,-1.3333333)" />
    <path
       id="path12"
       d="m 151.6556,-2.83484 v -1.41699 h 1.41699 v 1.41699 z"
       style="fill:#c43c33;fill-opacity:1;fill-rule:nonzero;stroke:none"
       transform="scale(1.3333333,-1.3333333)" />
    <path
       id="path13"
       d="m 155.90744,-7.08669 v -1.41743 h 1.41743 v 1.41743 z"
       style="fill:#c43c33;fill-opacity:1;fill-rule:nonzero;stroke:none"
       transform="scale(1.3333333,-1.3333333)" />
    <path
       id="path14"
       d="m 158.7423,-7.08669 v -1.41743 h 1.41699 v 1.41743 z"
       style="fill:#c43c33;fill-opacity:1;fill-rule:nonzero;stroke:none"
       transform="scale(1.3333333,-1.3333333)" />
    <path
       id="path15"
       d="m 151.6556,-7.08669 v -1.41743 h 1.41699 v 1.41743 z"
       style="fill:#c43c33;fill-opacity:1;fill-rule:nonzero;stroke:none"
       transform="scale(1.3333333,-1.3333333)" />
    <path
       id="path16"
       d="M 0.22294531,-7.8125e-6 H 1.7815391 L 2.2854453,-1.5937578 h 2.4375 L 5.2502891,-7.8125e-6 H 6.8206016 L 4.4065391,-6.8671953 H 2.5666953 Z M 2.6370078,-2.6953203 2.8362266,-3.3164141 c 0.2109375,-0.6914062 0.4101562,-1.5 0.6445312,-2.4492187 0.234375,0.9375 0.4570313,1.7460937 0.6679688,2.4492187 l 0.2109375,0.6210938 z m 6.6650391,2.77734374 c 0.8437501,0 1.2656251,-0.4921875 1.4531251,-0.90234375 h 0.07031 V -7.8125e-6 h 1.359375 V -6.8671953 h -1.382812 v 2.5898437 h -0.04687 c -0.175781,-0.4101562 -0.585938,-0.9375 -1.4648439,-0.9375 -1.1367187,0 -2.0859375,0.890625 -2.0859375,2.6484375 0,1.71093754 0.9140625,2.64843754 2.0976563,2.64843754 z m 0.421875,-1.10156254 c -0.7148438,0 -1.1015625,-0.6445312 -1.1015625,-1.546875 0,-0.9023437 0.375,-1.546875 1.1015625,-1.546875 0.7148441,0 1.1132811,0.609375 1.1132811,1.546875 0,0.9257813 -0.410156,1.546875 -1.1132811,1.546875 z M 14.80693,0.10546094 c 0.761718,0 1.253906,-0.33984375 1.5,-0.8203125 H 16.3538 V -7.8125e-6 h 1.3125 V -3.4687578 c 0,-1.2421875 -1.078125,-1.7460938 -2.179688,-1.7460938 -1.160156,0 -1.980469,0.515625 -2.25,1.40625 l 1.265625,0.2109375 c 0.117188,-0.328125 0.445313,-0.5976562 0.972656,-0.5976562 0.515625,0 0.808594,0.2578125 0.808594,0.6914062 v 0.023437 c 0,0.3398438 -0.363281,0.375 -1.242187,0.4570313 -1.019532,0.09375 -1.945313,0.4335937 -1.945313,1.5820312 0,1.01953129 0.726563,1.54687504 1.710938,1.54687504 z m 0.386718,-0.97265625 c -0.457031,0 -0.773437,-0.21093749 -0.773437,-0.60937499 0,-0.421875 0.339844,-0.609375 0.855469,-0.6914063 0.304687,-0.035156 0.84375,-0.1171875 1.019531,-0.234375 v 0.5625 c 0,0.5390625 -0.457031,0.97265629 -1.101563,0.97265629 z m 3.653321,2.78906251 h 1.382812 v -2.74218751 h 0.04687 c 0.1875,0.41015625 0.609375,0.90234375 1.453125,0.90234375 1.195313,0 2.097657,-0.9375 2.097657,-2.64843754 0,-1.7578125 -0.9375,-2.6484375 -2.085938,-2.6484375 -0.878906,0 -1.277344,0.5273438 -1.464844,0.9375 h -0.07031 v -0.8671875 h -1.359375 z m 2.460937,-2.9414063 c -0.703125,0 -1.113281,-0.6210937 -1.113281,-1.546875 0,-0.9375 0.410156,-1.546875 1.113281,-1.546875 0.726563,0 1.101563,0.6445313 1.101563,1.546875 0,0.9023438 -0.386719,1.546875 -1.101563,1.546875 z m 6.043946,-4.125 h -0.960938 v -1.2304687 h -1.382812 v 1.2304687 h -0.703125 v 1.0546875 h 0.703125 v 2.7070313 c 0,0.93749999 0.5625,1.45312499 1.59375,1.45312499 0.28125,0 0.585937,-0.0234375 0.902343,-0.1171875 L 27.304977,-1.0898516 c -0.105469,0.035156 -0.339844,0.058594 -0.445313,0.058594 -0.328125,0 -0.46875,-0.1523438 -0.46875,-0.4804688 v -2.578125 h 0.960938 z M 28.254195,-7.8125e-6 h 1.382813 V -5.1445391 H 28.254195 Z M 28.945602,-5.8242266 c 0.421875,0 0.761718,-0.3046875 0.761718,-0.703125 0,-0.3984375 -0.339843,-0.7148437 -0.761718,-0.7148437 -0.421875,0 -0.761719,0.3164062 -0.761719,0.7148437 0,0.3984375 0.339844,0.703125 0.761719,0.703125 z M 32.264938,-7.8125e-6 H 33.83525 L 35.733688,-5.1445391 h -1.441407 l -0.855468,2.671875 c -0.152344,0.4570313 -0.257813,0.9257813 -0.363282,1.3945313 -0.117187,-0.46875 -0.222656,-0.9375 -0.375,-1.3945313 l -0.855468,-2.671875 H 30.3665 Z m 6.36914,0.1054687525 c 1.195313,0 2.015625,-0.5625 2.273438,-1.41796874 l -1.253907,-0.234375 c -0.152343,0.3984375 -0.515625,0.60937499 -0.996093,0.60937499 -0.703125,0 -1.171875,-0.43359379 -1.195313,-1.27734379 h 3.515625 v -0.3867187 c 0,-1.7578125 -1.066406,-2.6132813 -2.414062,-2.6132813 -1.511719,0 -2.472657,1.078125 -2.472657,2.671875 0,1.61718754 0.960938,2.64843754 2.542969,2.64843754 z M 37.462203,-3.0820391 c 0.05859,-0.6328125 0.457031,-1.0898437 1.113281,-1.0898437 0.644532,0 1.007813,0.421875 1.078125,1.0898437 z m 7.49707,3.17578129 c 1.734375,0 2.800782,-1.17187499 2.953125,-2.43749999 H 46.49443 c -0.140625,0.7382812 -0.726563,1.1835937 -1.511719,1.1835937 -1.066406,0 -1.78125,-0.7734375 -1.78125,-2.2617187 0,-1.4648438 0.714844,-2.2851563 1.78125,-2.2851563 0.785156,0 1.371094,0.4453125 1.5,1.1835938 h 1.429687 c -0.199218,-1.5351563 -1.394531,-2.4257813 -2.953125,-2.4257813 -1.816406,0 -3.1875,1.2773438 -3.1875,3.5273438 0,2.2265625 1.359375,3.51562499 3.1875,3.51562499 z M 48.905563,-7.8125e-6 h 1.382812 V -2.9296953 c 0,-0.6445313 0.46875,-1.078125 1.101563,-1.078125 0.199218,0 0.480468,0.035156 0.597656,0.070312 v -1.2304688 c -0.117188,-0.035156 -0.304688,-0.046875 -0.445313,-0.046875 -0.574218,0 -1.054687,0.328125 -1.242187,0.9609375 H 50.2415 v -0.890625 H 48.905563 Z M 54.826461,0.10546094 c 1.546875,0 2.519531,-1.078125 2.519531,-2.66015624 0,-1.59375 -0.972656,-2.6601563 -2.519531,-2.6601563 -1.558594,0 -2.519531,1.0664063 -2.519531,2.6601563 0,1.58203124 0.960937,2.66015624 2.519531,2.66015624 z m 0,-1.08984375 c -0.738281,0 -1.113281,-0.66796879 -1.113281,-1.57031249 0,-0.9140625 0.375,-1.5703125 1.113281,-1.5703125 0.738281,0 1.113281,0.65625 1.113281,1.5703125 0,0.9023437 -0.375,1.57031249 -1.113281,1.57031249 z m 5.53125,1.08984375 c 1.347656,0 2.296875,-0.6796875 2.296875,-1.69921874 0,-0.7265625 -0.480469,-1.1835938 -1.464844,-1.3828125 l -0.925781,-0.1875 c -0.492188,-0.1054688 -0.667969,-0.28125 -0.667969,-0.5390625 0,-0.3046875 0.351563,-0.515625 0.796875,-0.515625 0.503906,0 0.796875,0.2460937 0.902344,0.5976562 l 1.230469,-0.2226562 c -0.199219,-0.8320313 -0.925782,-1.3710938 -2.144532,-1.3710938 -1.300781,0 -2.167968,0.609375 -2.167968,1.59375 0,0.7734375 0.492187,1.265625 1.488281,1.4648438 l 0.878906,0.1875 c 0.457031,0.09375 0.667969,0.2578125 0.667969,0.5273437 0,0.3046875 -0.328125,0.52734379 -0.855469,0.52734379 -0.5625,0 -0.890625,-0.23437499 -1.03125,-0.71484379 l -1.277344,0.2226563 c 0.175782,0.94921874 1.03125,1.51171874 2.273438,1.51171874 z m 5.288086,0 c 1.347656,0 2.296875,-0.6796875 2.296875,-1.69921874 0,-0.7265625 -0.480469,-1.1835938 -1.464844,-1.3828125 l -0.925781,-0.1875 c -0.492188,-0.1054688 -0.667969,-0.28125 -0.667969,-0.5390625 0,-0.3046875 0.351563,-0.515625 0.796875,-0.515625 0.503906,0 0.796875,0.2460937 0.902344,0.5976562 l 1.230469,-0.2226562 c -0.199219,-0.8320313 -0.925782,-1.3710938 -2.144532,-1.3710938 -1.300781,0 -2.167968,0.609375 -2.167968,1.59375 0,0.7734375 0.492187,1.265625 1.488281,1.4648438 l 0.878906,0.1875 c 0.457031,0.09375 0.667969,0.2578125 0.667969,0.5273437 0,0.3046875 -0.328125,0.52734379 -0.855469,0.52734379 -0.5625,0 -0.890625,-0.23437499 -1.03125,-0.71484379 l -1.277344,0.2226563 c 0.175782,0.94921874 1.03125,1.51171874 2.273438,1.51171874 z M 68.516891,-7.8125e-6 h 1.558593 L 70.579391,-1.5937578 h 2.4375 L 73.544234,-7.8125e-6 h 1.570313 L 72.700484,-6.8671953 H 70.860641 Z M 70.930953,-2.6953203 71.130172,-3.3164141 c 0.210937,-0.6914062 0.410156,-1.5 0.644531,-2.4492187 0.234375,0.9375 0.457031,1.7460937 0.667969,2.4492187 l 0.210937,0.6210938 z M 75.929,1.9218672 h 1.382813 v -2.74218751 h 0.04687 c 0.1875,0.41015625 0.609375,0.90234375 1.453125,0.90234375 1.195312,0 2.097656,-0.9375 2.097656,-2.64843754 0,-1.7578125 -0.9375,-2.6484375 -2.085938,-2.6484375 -0.878906,0 -1.277343,0.5273438 -1.464843,0.9375 h -0.07031 V -5.1445391 H 75.929 Z m 2.460938,-2.9414063 c -0.703125,0 -1.113282,-0.6210937 -1.113282,-1.546875 0,-0.9375 0.410157,-1.546875 1.113282,-1.546875 0.726562,0 1.101562,0.6445313 1.101562,1.546875 0,0.9023438 -0.386719,1.546875 -1.101562,1.546875 z m 3.489257,2.9414063 h 1.382813 v -2.74218751 h 0.04687 c 0.1875,0.41015625 0.609375,0.90234375 1.453125,0.90234375 1.195312,0 2.097656,-0.9375 2.097656,-2.64843754 0,-1.7578125 -0.9375,-2.6484375 -2.085937,-2.6484375 -0.878907,0 -1.277344,0.5273438 -1.464844,0.9375 h -0.07031 v -0.8671875 h -1.359375 z m 2.460938,-2.9414063 c -0.703125,0 -1.113281,-0.6210937 -1.113281,-1.546875 0,-0.9375 0.410156,-1.546875 1.113281,-1.546875 0.726562,0 1.101562,0.6445313 1.101562,1.546875 0,0.9023438 -0.386718,1.546875 -1.101562,1.546875 z M 87.829391,-7.8125e-6 h 1.382812 V -2.9296953 c 0,-0.6445313 0.46875,-1.078125 1.101563,-1.078125 0.199218,0 0.480468,0.035156 0.597656,0.070312 v -1.2304688 c -0.117188,-0.035156 -0.304688,-0.046875 -0.445313,-0.046875 -0.574218,0 -1.054687,0.328125 -1.242187,0.9609375 h -0.05859 v -0.890625 H 87.829391 Z M 93.750289,0.10546094 c 1.546875,0 2.519531,-1.078125 2.519531,-2.66015624 0,-1.59375 -0.972656,-2.6601563 -2.519531,-2.6601563 -1.558594,0 -2.519531,1.0664063 -2.519531,2.6601563 0,1.58203124 0.960937,2.66015624 2.519531,2.66015624 z m 0,-1.08984375 c -0.738281,0 -1.113281,-0.66796879 -1.113281,-1.57031249 0,-0.9140625 0.375,-1.5703125 1.113281,-1.5703125 0.738281,0 1.113281,0.65625 1.113281,1.5703125 0,0.9023437 -0.375,1.57031249 -1.113281,1.57031249 z m 2.90332,0.9843749975 h 1.453125 L 98.680953,-0.97266406 c 0.1875,-0.32812504 0.339844,-0.66796874 0.492188,-0.98437504 0.152343,0.3164063 0.316406,0.65625 0.503906,0.98437504 L 100.25127,-7.8125e-6 h 1.47656 l -1.65235,-2.6249999875 1.58204,-2.5195313 h -1.46485 l -0.480467,0.8085938 c -0.199219,0.3398437 -0.351562,0.6796875 -0.503906,0.9960937 -0.152344,-0.3164062 -0.316406,-0.65625 -0.503906,-0.9960937 l -0.46875,-0.8085938 h -1.488282 l 1.558594,2.4960938 z m 5.862301,0 h 1.38282 V -5.1445391 h -1.38282 z M 103.20732,-5.8242266 c 0.42188,0 0.76172,-0.3046875 0.76172,-0.703125 0,-0.3984375 -0.33984,-0.7148437 -0.76172,-0.7148437 -0.42187,0 -0.76172,0.3164062 -0.76172,0.7148437 0,0.3984375 0.33985,0.703125 0.76172,0.703125 z m 1.86621,5.8242187875 h 1.38281 V -3.1171953 c 0,-0.609375 0.375,-0.9492188 0.86719,-0.9492188 0.46875,0 0.79688,0.3164063 0.79688,0.8203125 V -7.8125e-6 h 1.33593 V -3.1640703 c 0,-0.5390625 0.32813,-0.9023438 0.84375,-0.9023438 0.46875,0 0.82032,0.28125 0.82032,0.8554688 V -7.8125e-6 h 1.38281 V -3.4687578 c 0,-1.125 -0.70313,-1.7578125 -1.64063,-1.7578125 -0.71484,0 -1.35937,0.3632812 -1.65234,1.1601562 -0.24609,-0.7851562 -0.66797,-1.1601562 -1.32422,-1.1601562 -0.62109,0 -1.19531,0.328125 -1.47656,1.078125 l -0.0469,-0.9960938 h -1.28906 z M 115.12822,0.10546094 c 0.76172,0 1.25391,-0.33984375 1.5,-0.8203125 h 0.0469 V -7.8125e-6 h 1.3125 V -3.4687578 c 0,-1.2421875 -1.07812,-1.7460938 -2.17968,-1.7460938 -1.16016,0 -1.98047,0.515625 -2.25,1.40625 l 1.26562,0.2109375 c 0.11719,-0.328125 0.44531,-0.5976562 0.97266,-0.5976562 0.51562,0 0.80859,0.2578125 0.80859,0.6914062 v 0.023437 c 0,0.3398438 -0.36328,0.375 -1.24219,0.4570313 -1.01953,0.09375 -1.94531,0.4335937 -1.94531,1.5820312 0,1.01953129 0.72656,1.54687504 1.71094,1.54687504 z m 0.38672,-0.97265625 c -0.45703,0 -0.77344,-0.21093749 -0.77344,-0.60937499 0,-0.421875 0.33984,-0.609375 0.85547,-0.6914063 0.30469,-0.035156 0.84375,-0.1171875 1.01953,-0.234375 v 0.5625 c 0,0.5390625 -0.45703,0.97265629 -1.10156,0.97265629 z m 6.20801,-4.27734379 h -0.96094 v -1.2304687 h -1.38281 v 1.2304687 h -0.70313 v 1.0546875 h 0.70313 v 2.7070313 c 0,0.93749999 0.5625,1.45312499 1.59375,1.45312499 0.28125,0 0.58593,-0.0234375 0.90234,-0.1171875 l -0.19922,-1.04296879 c -0.10547,0.035156 -0.33984,0.058594 -0.44531,0.058594 -0.32813,0 -0.46875,-0.1523438 -0.46875,-0.4804688 v -2.578125 h 0.96094 z m 0.90234,5.1445312875 h 1.38281 V -5.1445391 h -1.38281 z M 123.3167,-5.8242266 c 0.42187,0 0.76171,-0.3046875 0.76171,-0.703125 0,-0.3984375 -0.33984,-0.7148437 -0.76171,-0.7148437 -0.42188,0 -0.76172,0.3164062 -0.76172,0.7148437 0,0.3984375 0.33984,0.703125 0.76172,0.703125 z m 4.1748,5.92968754 c 1.54687,0 2.51953,-1.078125 2.51953,-2.66015624 0,-1.59375 -0.97266,-2.6601563 -2.51953,-2.6601563 -1.55859,0 -2.51953,1.0664063 -2.51953,2.6601563 0,1.58203124 0.96094,2.66015624 2.51953,2.66015624 z m 0,-1.08984375 c -0.73828,0 -1.11328,-0.66796879 -1.11328,-1.57031249 0,-0.9140625 0.375,-1.5703125 1.11328,-1.5703125 0.73828,0 1.11328,0.65625 1.11328,1.5703125 0,0.9023437 -0.375,1.57031249 -1.11328,1.57031249 z m 4.86328,-1.99218749 c 0,-0.6796875 0.41016,-1.078125 0.99609,-1.078125 0.58594,0 0.9375,0.375 0.9375,1.0195312 V -7.8125e-6 h 1.38282 V -3.2695391 c 0,-1.2070312 -0.70313,-1.9453125 -1.76953,-1.9453125 -0.79688,0 -1.3125,0.4101563 -1.60547,1.125 l -0.0117,-1.0546875 h -1.3125 V -7.8125e-6 h 1.38281 z m 5.47852,3.05859374 c 0.45703,0 0.79687,-0.33984375 0.79687,-0.78515625 0,-0.44531249 -0.33984,-0.79687499 -0.79687,-0.79687499 -0.44532,0 -0.79688,0.3515625 -0.79688,0.79687499 0,0.4453125 0.35156,0.78515625 0.79688,0.78515625 z m 2.16797,-5.22656254 v 5.39062504 c 0,0.3984375 -0.17579,0.59765625 -0.63282,0.59765625 h -0.1875 V 1.9218672 h 0.28125 c 1.19532,0 1.92188,-0.4804688 1.92188,-1.66406251 V -5.1445391 Z m 0.6914,-0.6796875 c 0.42188,0 0.76172,-0.3046875 0.76172,-0.703125 0,-0.3984375 -0.33984,-0.7148437 -0.76172,-0.7148437 -0.41015,0 -0.76172,0.3164062 -0.76172,0.7148437 0,0.3984375 0.35157,0.703125 0.76172,0.703125 z m 3.24903,-1.0429687 h -1.38282 V -7.8125e-6 h 1.38282 z m 0,0"
       style="fill:#ffffff;fill-opacity:1;fill-rule:nonzero;stroke:none"
       aria-label="AdaptiveCrossApproximation.jl"
       transform="matrix(1.3333333,0,0,1.3333333,3.7613333,26.222667)" />
  </g>
</svg>
